<svg version="1.2" xmlns="http://www.w3.org/2000/svg" viewBox="0 0 800 600" width="800" height="600"><defs><clipPath clipPathUnits="userSpaceOnUse" id="cp1"><path d="m0 0h800v600h-800z"/></clipPath><linearGradient id="P" gradientUnits="userSpaceOnUse"/><radialGradient id="g1" cx="400" cy="0" r="600" href="#P"><stop stop-color="#f1f8ff"/><stop offset="1" stop-color="#cae5f1"/></radialGradient></defs><style>.a{fill:url(#g1)}.b{opacity:.2;fill:#fff}</style><g clip-path="url(#cp1)"><path class="a" d="m0 0h800v600h-800z"/><path class="b" d="m0 550.8c0 0 122.8 45.3 206.2 0 83.4-45.4 62.2 68.1 290.7 31.2 228.5-36.9 212.5 25.8 303-8.5 0-3.6 0 25.4 0 25.4l-799.9 1.1z"/><path class="b" d="m0 577.2c121.4-31 61.1-118.7 309-56.2 247.9 62.5 187.2-28.8 288.4-46.1 101.3-17.4 170.4 56.4 204 46.2 0 15.2 0 78.9 0 78.9h-801.4z"/></g></svg>